<svg version="1" xmlns="http://www.w3.org/2000/svg" width="346.667" height="346.667" viewBox="0 0 260.000000 260.000000"><path d="M26.8 32.2c-1.5.5-3 1.8-3.3 2.8-.5 1.6-.9 57.1-.5 79.5.1 8.9 1.5 10.9 7.2 10.8 7.8-.2 7.6 1.6 7.4-47.2-.1-46.7.1-45.2-5.6-46.4-1.4-.3-3.7-.1-5.2.5zM105.2 32.6c-16.8 3.4-31.3 17.2-35.7 34-1.7 6.3-1.8 17.6-.3 23.4 4.9 18.6 23 34.1 41.3 35.1 7.7.5 11.5-2.4 11.3-8.3-.2-2.9-4.2-5.8-8.9-6.4-8.7-1.1-14.2-3.6-20-9.4-7.3-7.3-9.9-13.6-9.5-24 .4-11.5 6-20.5 16.6-26.8 3.2-1.9 4.8-2.3 13.3-3.6 5.1-.8 6.7-1.7 8.1-4.4 1.2-2.3 1.2-3.3.1-5.9-2-4.8-6.3-5.7-16.3-3.7zM185.5 31.8c-23.9 2.7-42 22.9-41.8 46.8.2 31.7 30.3 53.8 60.5 44.4 33.6-10.4 43.9-53 18.8-77.8-7-7-16.8-11.8-26-12.8-2.5-.3-5.4-.6-6.5-.8-1.1-.1-3.3 0-5 .2zm19.1 18.5c6.3 3.2 11.7 8.9 14.6 15.2 3.4 7.5 3.3 20.1-.4 27-10.3 19.5-34.8 23.6-50.7 8.5-7.6-7.2-10.8-17.6-8.9-28.2 3.8-21 26.4-32.2 45.4-22.5zM107.1 135.2c-7.4 1.1-18.6 6.8-24 12-10.8 10.5-15.3 21.9-14.6 36.6.4 9.8 2 15 6.9 22.5 8.8 13.6 20.9 20.8 37.1 22.1 5.3.5 9.6-3.3 9.5-8.2-.1-3.8-5.1-7.2-10.8-7.2-9.4-.1-20.9-8.6-25.5-19-3.7-8.3-2.8-21.2 2-28.7 5.9-9.3 12.9-13.8 23.7-15.4 8.4-1.3 10.7-2.9 10.8-7.9.2-6.2-4.6-8.4-15.1-6.8zM173.4 171.1c-16.6 3-27.2 20.9-21.9 37.1 8 24.7 41.5 27.2 53.1 4 2.7-5.4 3.1-7.3 3-13-.4-18.3-16.3-31.3-34.2-28.1zm12.9 16.8c7.2 4 8.5 14.9 2.5 21-6.8 7-18.1 5.3-22.2-3.2-3.4-7.3-.9-14.6 6.2-18.4 4.8-2.4 8.5-2.3 13.5.6z"/></svg>